  <svg width="42" height="47" viewBox="0 0 42 47" fill="none" xmlns="http://www.w3.org/2000/svg">
<path d="M38.5387 22.1983C38.0728 21.8272 37.5213 21.5745 36.9382 21.4559C36.9767 21.3857 37.0126 21.3143 37.0466 21.2419L37.4116 20.8745C38.8176 19.4597 38.9653 17.2328 37.7549 15.6942C37.1835 14.9679 36.3903 14.4853 35.5093 14.3051C35.5722 14.1886 35.628 14.0695 35.6786 13.9485C36.6362 12.5529 36.6205 10.6773 35.5601 9.32915C34.9885 8.60245 34.195 8.11829 33.3135 7.93845C34.0413 6.59214 33.9483 4.91421 32.9762 3.67879C32.2412 2.74449 31.1404 2.20846 29.9557 2.20846C29.0071 2.20846 28.1122 2.54954 27.4099 3.17404C27.3037 2.56708 27.0517 1.98087 26.6501 1.47033C25.9149 0.536023 24.8141 0.000152531 23.6295 -7.85553e-09C22.6 -7.85553e-09 21.6337 0.401941 20.9086 1.13154L11.6848 10.412L11.6496 9.17341C11.6334 7.06379 9.92248 5.35245 7.82196 5.35245C5.75949 5.35245 4.07286 7.00216 3.99706 9.05885L2.15563 22.529L0.642134 24.299C-0.264933 25.3603 -0.204139 26.9656 0.780855 27.9542L3.03025 30.2136C2.3368 31.2632 2.45824 32.6948 3.3647 33.6046L13.9267 44.2147C14.4314 44.7213 15.1014 45 15.8136 45C16.3984 45 16.9762 44.8025 17.4402 44.444L19.6452 42.7404C21.7664 42.2363 24.1049 41.091 26.6001 39.3342C28.7788 37.8 31.1425 35.7557 33.6251 33.2577L38.8754 27.9751C39.6497 27.1961 40.0572 26.1159 39.9935 25.0117C39.9298 23.9093 39.3997 22.8839 38.5387 22.1983ZM28.5211 4.63414C28.9157 4.23724 29.4356 4.03878 29.9556 4.03878C30.5491 4.03878 31.1428 4.29734 31.5497 4.8146C32.195 5.6348 32.0819 6.82506 31.3467 7.56457L30.4103 8.50666C30.2659 8.60352 30.1254 8.70709 29.9938 8.8244C29.8875 8.21729 29.6354 7.63108 29.2338 7.12069C28.74 6.49314 28.081 6.04635 27.3425 5.81998L28.5211 4.63414ZM22.195 2.42583C22.5894 2.02892 23.1094 1.83047 23.6295 1.83047C24.2232 1.83062 24.8167 2.08918 25.2236 2.60644C25.8689 3.42664 25.7558 4.61675 25.0206 5.35626L14.2688 16.0624L14.2334 14.8239C14.2242 13.6303 13.6725 12.5645 12.815 11.8639L22.195 2.42583ZM2.06558 26.6581C1.74993 26.3411 1.73068 25.8328 2.02146 25.4927L3.88335 23.3149C3.88426 23.3138 3.88502 23.3123 3.88517 23.3109L5.81362 9.20361C5.81362 8.09221 6.71735 7.18292 7.82196 7.18292C8.92657 7.18292 9.83045 8.09221 9.83045 9.20361L9.88276 11.0394C8.06529 11.2905 6.65018 12.8292 6.58075 14.7091L4.73948 28.1793L4.20385 28.806L2.06558 26.6581ZM37.5889 26.6806L32.3387 31.9632C27.8546 36.4749 23.1674 40.0963 19.0499 40.9992C18.9248 41.0268 18.8071 41.0797 18.7056 41.1583L16.3321 42.9921C16.1784 43.111 15.9957 43.1694 15.8138 43.1694C15.595 43.1694 15.3772 43.0847 15.2122 42.9191L4.64957 32.3084C4.33378 31.9916 4.31452 31.4833 4.60546 31.143L6.4672 28.9654C6.46826 28.9642 6.46886 28.9628 6.46917 28.9614L8.39746 14.8541C8.39746 13.7427 9.30134 12.8333 10.406 12.8333C11.5106 12.8333 12.4143 13.7427 12.4143 14.8541L12.5092 18.1831C12.525 18.7362 12.9772 19.0964 13.4478 19.0964C13.6773 19.0964 13.9114 19.0105 14.1011 18.8198L24.7789 8.07634C25.1736 7.67928 25.6933 7.48098 26.2135 7.48098C26.807 7.48098 27.4007 7.73954 27.8076 8.2568C28.4529 9.077 28.3396 10.2673 27.6045 11.0068L20.2488 18.4077C19.8669 18.7921 19.8669 19.4149 20.2488 19.799C20.4421 19.9935 20.6954 20.0908 20.9487 20.0908C21.2021 20.0908 21.4556 19.9935 21.6487 19.799L31.1051 10.2847C31.4996 9.8876 32.0194 9.68929 32.5396 9.68929C33.1331 9.68945 33.7268 9.948 34.1337 10.4653C34.779 11.2853 34.6657 12.4756 33.9306 13.2151L24.5186 22.6849C24.1316 23.0745 24.1316 23.7057 24.5186 24.0953C24.7094 24.2871 24.9592 24.3831 25.2094 24.3831C25.4592 24.3831 25.7092 24.2871 25.8999 24.0953L33.3 16.6498C33.6947 16.2528 34.2145 16.0545 34.7346 16.0545C35.3281 16.0545 35.9218 16.313 36.3287 16.8304C36.9739 17.6505 36.8607 18.8407 36.1256 19.5802L28.7955 26.9555C28.3995 27.3538 28.3995 28 28.7955 28.3982L28.8073 28.4103C28.9903 28.5944 29.2301 28.6864 29.4698 28.6864C29.7097 28.6864 29.9495 28.5944 30.1324 28.4103L34.6766 23.8381C35.0861 23.4261 35.6343 23.2082 36.1807 23.2082C36.6154 23.2082 37.0488 23.3461 37.4098 23.6337C38.374 24.4016 38.4338 25.8307 37.5889 26.6806Z" transform="translate(1 1)" fill="black"/>
<path d="M38.5387 22.1983C38.0728 21.8271 37.5213 21.5745 36.9382 21.4559C36.9767 21.3857 37.0126 21.3143 37.0466 21.2419L37.4116 20.8745C38.8176 19.4597 38.9653 17.2328 37.7549 15.6942C37.1835 14.9679 36.3903 14.4853 35.5093 14.3051C35.5722 14.1886 35.628 14.0695 35.6786 13.9485C36.6362 12.5529 36.6205 10.6773 35.5601 9.32915C34.9885 8.60245 34.195 8.11829 33.3135 7.93845C34.0413 6.59214 33.9483 4.91421 32.9762 3.67879C32.2412 2.74449 31.1404 2.20846 29.9557 2.20846C29.0071 2.20846 28.1122 2.54954 27.4099 3.17404C27.3037 2.56708 27.0517 1.98087 26.6501 1.47033C25.9149 0.536023 24.8141 0.000152531 23.6295 -7.85554e-09C22.6 -7.85554e-09 21.6337 0.401941 20.9086 1.13154L11.6848 10.412L11.6496 9.17341C11.6334 7.06379 9.92248 5.35245 7.82196 5.35245C5.75949 5.35245 4.07286 7.00216 3.99705 9.05885L2.15563 22.529L0.642134 24.299C-0.264933 25.3603 -0.204139 26.9656 0.780855 27.9542L3.03025 30.2136C2.3368 31.2632 2.45824 32.6948 3.3647 33.6046L13.9267 44.2147C14.4314 44.7213 15.1014 45 15.8136 45C16.3984 45 16.9762 44.8025 17.4402 44.444L19.6452 42.7404C21.7664 42.2363 24.1049 41.091 26.6001 39.3342C28.7788 37.8 31.1425 35.7557 33.6251 33.2577L38.8754 27.9751C39.6497 27.1961 40.0572 26.1159 39.9935 25.0117C39.9298 23.9093 39.3997 22.8839 38.5387 22.1983ZM28.5211 4.63414C28.9157 4.23724 29.4356 4.03878 29.9556 4.03878C30.5491 4.03878 31.1428 4.29734 31.5497 4.8146C32.195 5.6348 32.0819 6.82506 31.3467 7.56457L30.4103 8.50666C30.2659 8.60352 30.1254 8.70709 29.9938 8.8244C29.8875 8.21729 29.6354 7.63108 29.2338 7.12069C28.74 6.49314 28.081 6.04635 27.3425 5.81998L28.5211 4.63414ZM22.195 2.42583C22.5894 2.02892 23.1094 1.83047 23.6295 1.83047C24.2232 1.83062 24.8167 2.08918 25.2236 2.60644C25.8689 3.42664 25.7558 4.61675 25.0206 5.35626L14.2688 16.0624L14.2334 14.8239C14.2242 13.6303 13.6725 12.5645 12.815 11.8639L22.195 2.42583ZM2.06558 26.6581C1.74993 26.3411 1.73068 25.8328 2.02146 25.4927L3.88335 23.3149C3.88426 23.3138 3.88502 23.3123 3.88517 23.3109L5.81362 9.20361C5.81362 8.09221 6.71735 7.18292 7.82196 7.18292C8.92657 7.18292 9.83045 8.09221 9.83045 9.20361L9.88276 11.0394C8.06529 11.2905 6.65018 12.8292 6.58075 14.7091L4.73948 28.1793L4.20385 28.806L2.06558 26.6581ZM37.5889 26.6806L32.3387 31.9632C27.8546 36.4749 23.1674 40.0963 19.0499 40.9992C18.9248 41.0268 18.8071 41.0797 18.7056 41.1583L16.3321 42.9921C16.1784 43.1109 15.9957 43.1694 15.8138 43.1694C15.595 43.1694 15.3772 43.0847 15.2122 42.9191L4.64957 32.3084C4.33377 31.9916 4.31452 31.4833 4.60546 31.143L6.4672 28.9654C6.46826 28.9642 6.46886 28.9628 6.46917 28.9614L8.39746 14.8541C8.39746 13.7427 9.30134 12.8333 10.406 12.8333C11.5106 12.8333 12.4143 13.7427 12.4143 14.8541L12.5092 18.1831C12.525 18.7362 12.9772 19.0964 13.4478 19.0964C13.6773 19.0964 13.9114 19.0105 14.1011 18.8198L24.7789 8.07634C25.1736 7.67928 25.6933 7.48098 26.2135 7.48098C26.807 7.48098 27.4007 7.73954 27.8076 8.2568C28.4529 9.077 28.3396 10.2673 27.6045 11.0068L20.2488 18.4077C19.8669 18.7921 19.8669 19.4149 20.2488 19.799C20.4421 19.9935 20.6954 20.0908 20.9487 20.0908C21.2021 20.0908 21.4556 19.9935 21.6487 19.799L31.1051 10.2847C31.4996 9.8876 32.0194 9.68929 32.5396 9.68929C33.1331 9.68945 33.7268 9.948 34.1337 10.4653C34.779 11.2853 34.6657 12.4756 33.9306 13.2151L24.5186 22.6849C24.1316 23.0745 24.1316 23.7057 24.5186 24.0953C24.7094 24.2871 24.9592 24.3831 25.2094 24.3831C25.4592 24.3831 25.7092 24.2871 25.8999 24.0953L33.3 16.6498C33.6947 16.2528 34.2145 16.0545 34.7346 16.0545C35.3281 16.0545 35.9218 16.313 36.3287 16.8304C36.9739 17.6505 36.8607 18.8407 36.1256 19.5802L28.7955 26.9555C28.3995 27.3538 28.3995 28 28.7955 28.3982L28.8073 28.4103C28.9903 28.5944 29.2301 28.6864 29.4698 28.6864C29.7097 28.6864 29.9495 28.5944 30.1324 28.4103L34.6766 23.8381C35.0861 23.4261 35.6343 23.2082 36.1807 23.2082C36.6154 23.2082 37.0488 23.3461 37.4098 23.6337C38.374 24.4016 38.4338 25.8307 37.5889 26.6806Z" transform="translate(1 1)" stroke="black" stroke-width="2"/>
</svg>
