<?xml version="1.0" encoding="UTF-8" standalone="no"?>
<svg
   xmlns:dc="http://purl.org/dc/elements/1.1/"
   xmlns:cc="http://creativecommons.org/ns#"
   xmlns:rdf="http://www.w3.org/1999/02/22-rdf-syntax-ns#"
   xmlns:svg="http://www.w3.org/2000/svg"
   xmlns="http://www.w3.org/2000/svg"
   xmlns:sodipodi="http://sodipodi.sourceforge.net/DTD/sodipodi-0.dtd"
   xmlns:inkscape="http://www.inkscape.org/namespaces/inkscape"
   width="24"
   height="24"
   viewBox="0 0 24 24"
   fill="none"
   stroke="currentColor"
   stroke-width="2"
   stroke-linecap="round"
   stroke-linejoin="round"
   class="feather feather-aperture"
   version="1.1"
   id="svg16"
   sodipodi:docname="creativity-color.svg"
   inkscape:version="0.92.2 2405546, 2018-03-11">
  <metadata
     id="metadata22">
    <rdf:RDF>
      <cc:Work
         rdf:about="">
        <dc:format>image/svg+xml</dc:format>
        <dc:type
           rdf:resource="http://purl.org/dc/dcmitype/StillImage" />
        <dc:title></dc:title>
      </cc:Work>
    </rdf:RDF>
  </metadata>
  <defs
     id="defs20" />
  <sodipodi:namedview
     pagecolor="#ffffff"
     bordercolor="#666666"
     borderopacity="1"
     objecttolerance="10"
     gridtolerance="10"
     guidetolerance="10"
     inkscape:pageopacity="0"
     inkscape:pageshadow="2"
     inkscape:window-width="1920"
     inkscape:window-height="1053"
     id="namedview18"
     showgrid="false"
     inkscape:zoom="8"
     inkscape:cx="-4.6081851"
     inkscape:cy="33.526656"
     inkscape:window-x="0"
     inkscape:window-y="0"
     inkscape:window-maximized="1"
     inkscape:current-layer="svg16" />
  <circle
     cx="12"
     cy="12"
     r="10"
     id="circle2" />
  <line
     x1="14.31"
     y1="8"
     x2="20.05"
     y2="17.94"
     id="line4" />
  <line
     x1="9.69"
     y1="8"
     x2="21.17"
     y2="8"
     id="line6" />
  <line
     x1="7.38"
     y1="12"
     x2="13.12"
     y2="2.06"
     id="line8" />
  <line
     x1="9.69"
     y1="16"
     x2="3.95"
     y2="6.06"
     id="line10" />
  <line
     x1="14.31"
     y1="16"
     x2="2.83"
     y2="16"
     id="line12" />
  <line
     x1="16.62"
     y1="12"
     x2="10.88"
     y2="21.94"
     id="line14" />
  <path
     style="fill:#e85a5a;fill-opacity:1;stroke:#e85a5a;stroke-width:0.15625;stroke-linecap:round;stroke-linejoin:round;stroke-miterlimit:4;stroke-dasharray:none;stroke-opacity:1;paint-order:markers fill stroke"
     d="m 19.143578,14.33866 c -0.508577,-0.880859 -1.410016,-2.441891 -2.003196,-3.468959 l -1.078509,-1.8673958 2.208173,0.00802 2.208173,0.00802 0.07169,0.21875 c 0.592121,1.8067568 0.572554,3.8607578 -0.05409,5.6779858 -0.106384,0.308508 -0.400854,1.025139 -0.421238,1.025139 -0.0035,0 -0.422424,-0.720703 -0.931002,-1.601563 z"
     id="path841"
     inkscape:connector-curvature="0" />
  <path
     style="fill:#e85a5a;fill-opacity:1;stroke:#e85a5a;stroke-width:0.15625;stroke-linecap:round;stroke-linejoin:round;stroke-miterlimit:4;stroke-dasharray:none;stroke-opacity:1;paint-order:markers fill stroke"
     d="m 11.515906,6.8699103 c 0.03272,-0.055859 0.527255,-0.9120705 1.098971,-1.9026914 L 13.654362,3.16609 13.910041,3.222056 c 1.344098,0.2942142 2.68129,0.9331723 3.725966,1.7803997 0.614617,0.4984512 1.391409,1.3358824 1.746723,1.8830793 l 0.0558,0.085937 H 15.447476 11.45642 Z"
     id="path843"
     inkscape:connector-curvature="0" />
  <path
     style="fill:#e85a5a;fill-opacity:1;stroke:#e85a5a;stroke-width:0.15625;stroke-linecap:round;stroke-linejoin:round;stroke-miterlimit:4;stroke-dasharray:none;stroke-opacity:1;paint-order:markers fill stroke"
     d="M 6.2805556,8.0636231 5.1789042,6.1561716 5.3279161,5.9817512 C 5.4098727,5.8858201 5.6218932,5.6699553 5.7990729,5.5020517 7.2569493,4.1205011 9.0538105,3.2869967 11.052935,3.0649591 c 0.161407,-0.017927 0.299091,-0.02697 0.305966,-0.020096 0.0069,0.00687 -0.871506,1.5435642 -1.9519555,3.4148665 C 8.3264958,8.3310322 7.4289277,9.8866175 7.4123494,9.9165862 7.3881081,9.9604072 7.1665283,9.5976384 6.2805556,8.0636231 Z"
     id="path845"
     inkscape:connector-curvature="0" />
  <path
     style="fill:#e85a5a;fill-opacity:1;stroke:#e85a5a;stroke-width:0.15625;stroke-linecap:round;stroke-linejoin:round;stroke-miterlimit:4;stroke-dasharray:none;stroke-opacity:1;paint-order:markers fill stroke"
     d="M 3.4916504,14.887579 C 3.4113577,14.676393 3.2722659,14.161856 3.2004606,13.810391 3.0580817,13.11349 3.0160933,12.600523 3.03459,11.783973 c 0.01723,-0.760642 0.055709,-1.101722 0.1974246,-1.75 0.157659,-0.7212104 0.6391025,-2.0151815 0.7177737,-1.9291537 0.038035,0.041592 3.9124829,6.7506647 3.9402416,6.8230027 0.014242,0.03711 -0.3115416,0.04365 -2.1748663,0.04365 H 3.5235467 Z"
     id="path847"
     inkscape:connector-curvature="0" />
  <path
     style="fill:#e85a5a;fill-opacity:1;stroke:#e85a5a;stroke-width:0.15625;stroke-linecap:round;stroke-linejoin:round;stroke-miterlimit:4;stroke-dasharray:none;stroke-opacity:1;paint-order:markers fill stroke"
     d="M 9.7907187,20.707851 C 7.7753968,20.188526 6.0937261,19.065618 4.8146165,17.385139 4.6672735,17.191561 4.5536266,17.026273 4.5620678,17.017832 c 0.00844,-0.0084 1.8089901,-0.01178 4.0012196,-0.0074 l 3.9858726,0.0079 -1.096175,1.898437 c -1.003448,1.737847 -1.102935,1.898324 -1.176096,1.897095 -0.04396,-7.38e-4 -0.262733,-0.04845 -0.4861703,-0.106029 z"
     id="path849"
     inkscape:connector-curvature="0" />
  <path
     style="fill:#e85a5a;fill-opacity:1;stroke:#e85a5a;stroke-width:0.15625;stroke-linecap:round;stroke-linejoin:round;stroke-miterlimit:4;stroke-dasharray:none;stroke-opacity:1;paint-order:markers fill stroke"
     d="m 12.670314,20.872519 c 0.0334,-0.05729 0.931492,-1.612532 1.995765,-3.456083 1.064273,-1.843552 1.945888,-3.348239 1.959143,-3.34375 0.03228,0.01093 2.181122,3.733805 2.181122,3.778796 0,0.06004 -0.873361,0.908725 -1.207789,1.173658 -1.32411,1.048958 -2.898469,1.704955 -4.557836,1.899141 -0.08594,0.01006 -0.218098,0.02596 -0.293689,0.03535 l -0.137438,0.01706 z"
     id="path851"
     inkscape:connector-curvature="0" />
</svg>
